<mxfile host="app.diagrams.net" agent="Mozilla/5.0 (Windows NT 10.0; Win64; x64) AppleWebKit/537.36 (KHTML, like Gecko) Chrome/136.0.0.0 Safari/537.36" version="27.1.1">
  <diagram name="Página-1" id="KAOb1J4Nx4OWnxeqtGj4">
    <mxGraphModel dx="1665" dy="777" grid="1" gridSize="10" guides="1" tooltips="1" connect="1" arrows="1" fold="1" page="1" pageScale="1" pageWidth="827" pageHeight="1169" math="0" shadow="0">
      <root>
        <mxCell id="0" />
        <mxCell id="1" parent="0" />
        <mxCell id="YIYK3CNmni_FBI9aUBUp-1" value="" style="rounded=0;whiteSpace=wrap;html=1;" vertex="1" parent="1">
          <mxGeometry x="320" y="140" width="120" height="60" as="geometry" />
        </mxCell>
        <mxCell id="YIYK3CNmni_FBI9aUBUp-2" value="Interface Web" style="text;html=1;align=center;verticalAlign=middle;whiteSpace=wrap;rounded=0;" vertex="1" parent="1">
          <mxGeometry x="350" y="155" width="60" height="30" as="geometry" />
        </mxCell>
        <mxCell id="YIYK3CNmni_FBI9aUBUp-3" value="" style="rounded=0;whiteSpace=wrap;html=1;" vertex="1" parent="1">
          <mxGeometry x="320" y="240" width="120" height="60" as="geometry" />
        </mxCell>
        <mxCell id="YIYK3CNmni_FBI9aUBUp-4" value="Serviço de Autenticação" style="text;html=1;align=center;verticalAlign=middle;whiteSpace=wrap;rounded=0;" vertex="1" parent="1">
          <mxGeometry x="350" y="255" width="60" height="30" as="geometry" />
        </mxCell>
        <mxCell id="YIYK3CNmni_FBI9aUBUp-5" value="" style="rounded=0;whiteSpace=wrap;html=1;" vertex="1" parent="1">
          <mxGeometry x="250" y="340" width="120" height="60" as="geometry" />
        </mxCell>
        <mxCell id="YIYK3CNmni_FBI9aUBUp-6" value="Módulo Financeiro" style="text;html=1;align=center;verticalAlign=middle;whiteSpace=wrap;rounded=0;" vertex="1" parent="1">
          <mxGeometry x="280" y="355" width="60" height="30" as="geometry" />
        </mxCell>
        <mxCell id="YIYK3CNmni_FBI9aUBUp-7" value="" style="rounded=0;whiteSpace=wrap;html=1;" vertex="1" parent="1">
          <mxGeometry x="390" y="340" width="120" height="60" as="geometry" />
        </mxCell>
        <mxCell id="YIYK3CNmni_FBI9aUBUp-8" value="OCR e Digitalização" style="text;html=1;align=center;verticalAlign=middle;whiteSpace=wrap;rounded=0;" vertex="1" parent="1">
          <mxGeometry x="420" y="355" width="60" height="30" as="geometry" />
        </mxCell>
        <mxCell id="YIYK3CNmni_FBI9aUBUp-9" value="" style="rounded=0;whiteSpace=wrap;html=1;" vertex="1" parent="1">
          <mxGeometry x="320" y="430" width="120" height="60" as="geometry" />
        </mxCell>
        <mxCell id="YIYK3CNmni_FBI9aUBUp-10" value="Gerador de Analise" style="text;html=1;align=center;verticalAlign=middle;whiteSpace=wrap;rounded=0;" vertex="1" parent="1">
          <mxGeometry x="345" y="445" width="70" height="30" as="geometry" />
        </mxCell>
        <mxCell id="YIYK3CNmni_FBI9aUBUp-11" value="" style="rounded=0;whiteSpace=wrap;html=1;" vertex="1" parent="1">
          <mxGeometry x="180" y="530" width="120" height="60" as="geometry" />
        </mxCell>
        <mxCell id="YIYK3CNmni_FBI9aUBUp-12" value="Gerador de Relatório" style="text;html=1;align=center;verticalAlign=middle;whiteSpace=wrap;rounded=0;" vertex="1" parent="1">
          <mxGeometry x="205" y="545" width="70" height="30" as="geometry" />
        </mxCell>
        <mxCell id="YIYK3CNmni_FBI9aUBUp-13" value="" style="rounded=0;whiteSpace=wrap;html=1;" vertex="1" parent="1">
          <mxGeometry x="320" y="530" width="120" height="60" as="geometry" />
        </mxCell>
        <mxCell id="YIYK3CNmni_FBI9aUBUp-14" value="Gerador de Graficos" style="text;html=1;align=center;verticalAlign=middle;whiteSpace=wrap;rounded=0;" vertex="1" parent="1">
          <mxGeometry x="345" y="545" width="70" height="30" as="geometry" />
        </mxCell>
        <mxCell id="YIYK3CNmni_FBI9aUBUp-15" value="" style="rounded=0;whiteSpace=wrap;html=1;" vertex="1" parent="1">
          <mxGeometry x="460" y="530" width="120" height="60" as="geometry" />
        </mxCell>
        <mxCell id="YIYK3CNmni_FBI9aUBUp-16" value="Gerador de Previsões" style="text;html=1;align=center;verticalAlign=middle;whiteSpace=wrap;rounded=0;" vertex="1" parent="1">
          <mxGeometry x="485" y="545" width="70" height="30" as="geometry" />
        </mxCell>
        <mxCell id="YIYK3CNmni_FBI9aUBUp-17" value="" style="rounded=0;whiteSpace=wrap;html=1;" vertex="1" parent="1">
          <mxGeometry x="320" y="625" width="120" height="60" as="geometry" />
        </mxCell>
        <mxCell id="YIYK3CNmni_FBI9aUBUp-18" value="Banco de Dados" style="text;html=1;align=center;verticalAlign=middle;whiteSpace=wrap;rounded=0;" vertex="1" parent="1">
          <mxGeometry x="350" y="640" width="60" height="30" as="geometry" />
        </mxCell>
        <mxCell id="YIYK3CNmni_FBI9aUBUp-19" value="" style="rounded=0;whiteSpace=wrap;html=1;" vertex="1" parent="1">
          <mxGeometry x="320" y="715" width="120" height="60" as="geometry" />
        </mxCell>
        <mxCell id="YIYK3CNmni_FBI9aUBUp-20" value="Serviço de Notificação" style="text;html=1;align=center;verticalAlign=middle;whiteSpace=wrap;rounded=0;" vertex="1" parent="1">
          <mxGeometry x="350" y="730" width="60" height="30" as="geometry" />
        </mxCell>
        <mxCell id="YIYK3CNmni_FBI9aUBUp-21" value="" style="edgeStyle=segmentEdgeStyle;endArrow=classic;html=1;curved=0;rounded=0;endSize=8;startSize=8;exitX=0.5;exitY=1;exitDx=0;exitDy=0;" edge="1" parent="1" source="YIYK3CNmni_FBI9aUBUp-1" target="YIYK3CNmni_FBI9aUBUp-3">
          <mxGeometry width="50" height="50" relative="1" as="geometry">
            <mxPoint x="380" y="220" as="sourcePoint" />
            <mxPoint x="500" y="200" as="targetPoint" />
          </mxGeometry>
        </mxCell>
        <mxCell id="YIYK3CNmni_FBI9aUBUp-22" value="" style="edgeStyle=segmentEdgeStyle;endArrow=classic;html=1;curved=0;rounded=0;endSize=8;startSize=8;exitX=0.5;exitY=1;exitDx=0;exitDy=0;entryX=0.5;entryY=0;entryDx=0;entryDy=0;" edge="1" parent="1" source="YIYK3CNmni_FBI9aUBUp-3" target="YIYK3CNmni_FBI9aUBUp-7">
          <mxGeometry width="50" height="50" relative="1" as="geometry">
            <mxPoint x="470" y="340" as="sourcePoint" />
            <mxPoint x="520" y="290" as="targetPoint" />
          </mxGeometry>
        </mxCell>
        <mxCell id="YIYK3CNmni_FBI9aUBUp-23" value="" style="edgeStyle=segmentEdgeStyle;endArrow=classic;html=1;curved=0;rounded=0;endSize=8;startSize=8;exitX=0.5;exitY=1;exitDx=0;exitDy=0;entryX=0.5;entryY=0;entryDx=0;entryDy=0;" edge="1" parent="1" source="YIYK3CNmni_FBI9aUBUp-3" target="YIYK3CNmni_FBI9aUBUp-5">
          <mxGeometry width="50" height="50" relative="1" as="geometry">
            <mxPoint x="110" y="340" as="sourcePoint" />
            <mxPoint x="160" y="290" as="targetPoint" />
          </mxGeometry>
        </mxCell>
        <mxCell id="YIYK3CNmni_FBI9aUBUp-24" value="" style="edgeStyle=segmentEdgeStyle;endArrow=classic;html=1;curved=0;rounded=0;endSize=8;startSize=8;exitX=0.5;exitY=1;exitDx=0;exitDy=0;entryX=0.5;entryY=0;entryDx=0;entryDy=0;" edge="1" parent="1" source="YIYK3CNmni_FBI9aUBUp-5" target="YIYK3CNmni_FBI9aUBUp-9">
          <mxGeometry width="50" height="50" relative="1" as="geometry">
            <mxPoint x="190" y="500" as="sourcePoint" />
            <mxPoint x="240" y="450" as="targetPoint" />
          </mxGeometry>
        </mxCell>
        <mxCell id="YIYK3CNmni_FBI9aUBUp-25" value="" style="edgeStyle=segmentEdgeStyle;endArrow=classic;html=1;curved=0;rounded=0;endSize=8;startSize=8;exitX=0.5;exitY=1;exitDx=0;exitDy=0;entryX=0.5;entryY=0;entryDx=0;entryDy=0;" edge="1" parent="1" source="YIYK3CNmni_FBI9aUBUp-7" target="YIYK3CNmni_FBI9aUBUp-9">
          <mxGeometry width="50" height="50" relative="1" as="geometry">
            <mxPoint x="510" y="510" as="sourcePoint" />
            <mxPoint x="560" y="460" as="targetPoint" />
          </mxGeometry>
        </mxCell>
        <mxCell id="YIYK3CNmni_FBI9aUBUp-26" value="" style="edgeStyle=segmentEdgeStyle;endArrow=classic;html=1;curved=0;rounded=0;endSize=8;startSize=8;exitX=0.5;exitY=1;exitDx=0;exitDy=0;entryX=0.5;entryY=0;entryDx=0;entryDy=0;" edge="1" parent="1" source="YIYK3CNmni_FBI9aUBUp-9" target="YIYK3CNmni_FBI9aUBUp-11">
          <mxGeometry width="50" height="50" relative="1" as="geometry">
            <mxPoint x="120" y="450" as="sourcePoint" />
            <mxPoint x="170" y="400" as="targetPoint" />
          </mxGeometry>
        </mxCell>
        <mxCell id="YIYK3CNmni_FBI9aUBUp-27" value="" style="edgeStyle=segmentEdgeStyle;endArrow=classic;html=1;curved=0;rounded=0;endSize=8;startSize=8;exitX=0.5;exitY=1;exitDx=0;exitDy=0;entryX=0.5;entryY=0;entryDx=0;entryDy=0;" edge="1" parent="1" source="YIYK3CNmni_FBI9aUBUp-9" target="YIYK3CNmni_FBI9aUBUp-15">
          <mxGeometry width="50" height="50" relative="1" as="geometry">
            <mxPoint x="470" y="510" as="sourcePoint" />
            <mxPoint x="520" y="460" as="targetPoint" />
          </mxGeometry>
        </mxCell>
        <mxCell id="YIYK3CNmni_FBI9aUBUp-28" value="" style="edgeStyle=segmentEdgeStyle;endArrow=classic;html=1;curved=0;rounded=0;endSize=8;startSize=8;exitX=0.5;exitY=1;exitDx=0;exitDy=0;" edge="1" parent="1" source="YIYK3CNmni_FBI9aUBUp-9" target="YIYK3CNmni_FBI9aUBUp-13">
          <mxGeometry width="50" height="50" relative="1" as="geometry">
            <mxPoint x="70" y="460" as="sourcePoint" />
            <mxPoint x="120" y="410" as="targetPoint" />
          </mxGeometry>
        </mxCell>
        <mxCell id="YIYK3CNmni_FBI9aUBUp-29" value="" style="edgeStyle=segmentEdgeStyle;endArrow=classic;html=1;curved=0;rounded=0;endSize=8;startSize=8;exitX=0.5;exitY=1;exitDx=0;exitDy=0;entryX=0;entryY=0.5;entryDx=0;entryDy=0;" edge="1" parent="1" source="YIYK3CNmni_FBI9aUBUp-11" target="YIYK3CNmni_FBI9aUBUp-17">
          <mxGeometry width="50" height="50" relative="1" as="geometry">
            <mxPoint x="90" y="710" as="sourcePoint" />
            <mxPoint x="140" y="660" as="targetPoint" />
            <Array as="points">
              <mxPoint x="240" y="655" />
            </Array>
          </mxGeometry>
        </mxCell>
        <mxCell id="YIYK3CNmni_FBI9aUBUp-30" value="" style="edgeStyle=segmentEdgeStyle;endArrow=classic;html=1;curved=0;rounded=0;endSize=8;startSize=8;exitX=0.5;exitY=1;exitDx=0;exitDy=0;entryX=1;entryY=0.5;entryDx=0;entryDy=0;" edge="1" parent="1" source="YIYK3CNmni_FBI9aUBUp-15" target="YIYK3CNmni_FBI9aUBUp-17">
          <mxGeometry width="50" height="50" relative="1" as="geometry">
            <mxPoint x="555" y="640" as="sourcePoint" />
            <mxPoint x="475" y="705" as="targetPoint" />
            <Array as="points">
              <mxPoint x="520" y="655" />
            </Array>
          </mxGeometry>
        </mxCell>
        <mxCell id="YIYK3CNmni_FBI9aUBUp-31" value="" style="edgeStyle=segmentEdgeStyle;endArrow=classic;html=1;curved=0;rounded=0;endSize=8;startSize=8;exitX=0.5;exitY=1;exitDx=0;exitDy=0;" edge="1" parent="1" source="YIYK3CNmni_FBI9aUBUp-13">
          <mxGeometry width="50" height="50" relative="1" as="geometry">
            <mxPoint x="80" y="570" as="sourcePoint" />
            <mxPoint x="380" y="620" as="targetPoint" />
          </mxGeometry>
        </mxCell>
        <mxCell id="YIYK3CNmni_FBI9aUBUp-32" value="" style="edgeStyle=segmentEdgeStyle;endArrow=classic;html=1;curved=0;rounded=0;endSize=8;startSize=8;exitX=0.5;exitY=1;exitDx=0;exitDy=0;entryX=0.5;entryY=0;entryDx=0;entryDy=0;" edge="1" parent="1" source="YIYK3CNmni_FBI9aUBUp-17" target="YIYK3CNmni_FBI9aUBUp-19">
          <mxGeometry width="50" height="50" relative="1" as="geometry">
            <mxPoint x="130" y="470" as="sourcePoint" />
            <mxPoint x="180" y="420" as="targetPoint" />
          </mxGeometry>
        </mxCell>
      </root>
    </mxGraphModel>
  </diagram>
</mxfile>
